<?xml version="1.0" encoding="utf-8"?>
<!-- Generator: Adobe Illustrator 24.0.2, SVG Export Plug-In . SVG Version: 6.00 Build 0)  -->
<svg version="1.1" id="Capa_1" xmlns="http://www.w3.org/2000/svg" xmlns:xlink="http://www.w3.org/1999/xlink" x="0px" y="0px"
	 viewBox="0 0 351.2 373.9" style="enable-background:new 0 0 351.2 373.9;" xml:space="preserve">
<style type="text/css">
	.st0{opacity:0.25;}
</style>
<g class="st0">
	<g>
		<path d="M276,373.9H79c-18.5,0-33.6-15.1-33.6-33.6l-27.9-131C6.9,204,0,193.3,0,181.5C0,164.1,14.2,150,31.5,150h288.1
			c17.4,0,31.6,14.1,31.6,31.5c0,10.2-4.9,19.5-13.1,25.4l-28.7,135.6C309.6,358.8,294.5,373.9,276,373.9z M31.5,170.6
			c-6,0-10.9,4.9-10.9,10.9c0,4.7,3.4,8.9,8.3,10.1c3.8,1,6.7,4,7.5,7.9l29.3,138.7c0.2,9.3,6,15.1,13.2,15.1h197
			c7.1,0,12.9-5.8,12.9-12.9l29.8-142.1c0.7-3.1,2.7-5.8,5.5-7.2c3.8-1.9,6.2-5.5,6.2-9.6c0-6-4.9-10.9-10.9-10.9L31.5,170.6
			L31.5,170.6z"/>
		<path d="M105.6,313.2c0,4-3.3,7.3-7.3,7.3h-2c-4,0-7.3-3.3-7.3-7.3V228c0-4,3.3-7.3,7.3-7.3h2c4,0,7.3,3.3,7.3,7.3V313.2
			L105.6,313.2z"/>
		<path d="M158.8,313.2c0,4-3.3,7.3-7.3,7.3h-2c-4,0-7.3-3.3-7.3-7.3V228c0-4,3.3-7.3,7.3-7.3h2c4,0,7.3,3.3,7.3,7.3V313.2
			L158.8,313.2z"/>
		<path d="M212.1,313.2c0,4-3.3,7.3-7.3,7.3h-2c-4,0-7.3-3.3-7.3-7.3V228c0-4,3.3-7.3,7.3-7.3h2c4,0,7.3,3.3,7.3,7.3V313.2z"/>
		<path d="M265.4,313.2c0,4-3.3,7.3-7.3,7.3h-2c-4,0-7.3-3.3-7.3-7.3V228c0-4,3.3-7.3,7.3-7.3h2c4,0,7.3,3.3,7.3,7.3V313.2z"/>
		<path d="M175.8,0C108.9,0,54.6,54.3,54.6,121.2h21.9c0-54.8,44.4-99.3,99.3-99.3s99.3,44.5,99.3,99.3H297
			C297,54.3,242.8,0,175.8,0z"/>
	</g>
</g>
</svg>
