<?xml version="1.0" encoding="utf-8"?>
<!-- Generator: Adobe Illustrator 24.0.2, SVG Export Plug-In . SVG Version: 6.00 Build 0)  -->
<svg version="1.1" id="Layer_1" xmlns="http://www.w3.org/2000/svg" xmlns:xlink="http://www.w3.org/1999/xlink" x="0px" y="0px"
	 viewBox="0 0 355.8 371.9" style="enable-background:new 0 0 355.8 371.9;" xml:space="preserve">
<style type="text/css">
	.st0{fill:#393939;}
</style>
<path class="st0" d="M116.5,371.9c11.9-8.7,20.1-22.4,21.3-38.2c72.8,21.4,145.7-33.2,146.3-108.6c0-0.2,0-32.6,0-32.8
	c0-4.7-3.8-8.5-8.5-8.5s-8.5,3.8-8.5,8.5v31.9c0,53.5-43.5,97.1-97.1,97.1S73,277.7,73,224.2V155c0.1-14.7,16.7-21.1,27-12.3
	c24.1,20.8,53.9,31.9,83.5,33.4c7.3,0.4,11.7-8.2,7-13.9c-4.3-5.3-7-12.3-6.7-19.7c27.9,18.5,60.4,26.4,92.4,24
	c4.7-0.4,8.2-4.4,7.9-9.1c-0.4-4.7-4.4-8.2-9.1-7.9c-32.2,2.4-64.6-6.9-91.1-28c-4.4-3.5-10.9-1.9-13.1,3.2
	c-4.5,10-5.4,21.6-1.9,32.6c-21.5-3.9-41.3-13.3-57.8-27.5c-21.5-18.5-54.9-3.6-55.2,24.7l0,55.9c-5.7-3-9.6-8.8-9.6-15.6
	c0-0.1,0-44.4,0-44.5c-0.4-19.3,2.3-67.9,37.1-101.4c38.8-37.4,99.5-37.4,146.8-21l-6.8,2.8c-8.1,3.4-6.4,15.4,2.3,16.4l15,1.6
	c28.9,3.1,54.4,18.1,70.7,41.5c-10.7,13-16.6,29.3-16.6,46.4v58.2c0,4.7,3.8,8.5,8.5,8.5s8.5-3.8,8.5-8.5v-58.2
	c0-14.8,5.7-28.8,16.1-39.4c2.9-2.9,3.2-7.7,1.2-10.9c-17-27.3-42.3-44.8-71.2-51.9c4.6-3.9,3.8-11.3-1.7-14.1
	C231.6,7.6,196-1.2,162.5,0.1C77.3,3.4,27.5,67,29.3,150.4v44.2c0,16.3,11.4,30,26.7,33.7c1.6,43.6,27.7,81,65,98.8v2.2
	c0,19.7-15.9,35.6-35.7,35.6c-12.1,0-23.6,2.4-34,6.8"/>
<path class="st0" d="M116.3,372c0.1-0.1,0.1-0.1,0.2-0.2"/>
<path class="st0" d="M288.7,371.8c-10.4-4.4-21.9-6.8-33.9-6.8c-12.6,0-24-6.4-30.5-17.1c-2.5-4-7.7-5.3-11.7-2.8
	c-4,2.5-5.3,7.7-2.8,11.7c3.7,6,8.4,11.1,13.8,15.1"/>
</svg>
